#Comment line ignore any data following # character 
#Hierarchical Translation and Rotation (.htr) file 
[Header]	
#Header keywords are followed by a single value 
FileType HTR		#Single word string
DataType HTRS		#Translation followed by rotation and scale data
FileVersion 1		#integer
NumSegments 84		#integer
NumFrames 2		#integer
DataFrameRate 30		#integer, data frame rate in this file
EulerRotationOrder ZYX
CalibrationUnits mm
RotationUnits Degrees
GlobalAxisofGravity Y
BoneLengthAxis Y
ScaleFactor 1.00
[SegmentNames&Hierarchy]
#CHILD	PARENT
MASTER GLOBAL
root MASTER
chest root
L_mid_tent01 root
R_mid_tent01 root
spine01 root
Bip01_Neck chest
L_humerus chest
R_humerus chest
weapon_bone chest
Bip01_Head Bip01_Neck
eye_left_bone Bip01_Head
eye_right_bone Bip01_Head
L_forearm L_humerus
L_front_hand L_forearm
L_weapon_bone L_forearm
L_front_hand01_01 L_front_hand
L_front_hand02_01 L_front_hand
L_front_hand03_01 L_front_hand
L_front_hand01_02 L_front_hand01_01
L_front_hand02_02 L_front_hand02_01
L_front_hand03_02 L_front_hand03_01
R_forearm R_humerus
R_front_hand R_forearm
R_weapon_bone R_forearm
R_front_hand01_01 R_front_hand
R_front_hand02_01 R_front_hand
R_front_hand03_01 R_front_hand
R_front_hand01_02 R_front_hand01_01
R_front_hand02_02 R_front_hand02_01
R_front_hand03_02 R_front_hand03_01
null_rope01_connect L_mid_tent01
Rope1_Seg01 null_rope01_connect
Rope1_Seg02 Rope1_Seg01
Rope1_Seg03 Rope1_Seg02
Rope1_Seg04 Rope1_Seg03
Rope1_Seg05 Rope1_Seg04
Rope1_Seg06 Rope1_Seg05
Rope1_Seg07 Rope1_Seg06
Rope1_Seg09 Rope1_Seg07
L_mid_hand01 Rope1_Seg09
L_mid_hand02 Rope1_Seg09
L_mid_hand03 Rope1_Seg09
null_rope02_connect R_mid_tent01
Rope2_Seg01 null_rope02_connect
Rope2_Seg02 Rope2_Seg01
Rope2_Seg03 Rope2_Seg02
Rope2_Seg04 Rope2_Seg03
Rope2_Seg05 Rope2_Seg04
Rope2_Seg06 Rope2_Seg05
Rope2_Seg07 Rope2_Seg06
Rope2_Seg09 Rope2_Seg07
R_mid_hand01 Rope2_Seg09
R_mid_hand02 Rope2_Seg09
R_mid_hand03 Rope2_Seg09
spine02 spine01
spine03 spine02
pelvis spine03
null_rope03_connect pelvis
null_rope04_connect pelvis
Rope3_Seg01 null_rope03_connect
Rope3_Seg02 Rope3_Seg01
Rope3_Seg03 Rope3_Seg02
Rope3_Seg04 Rope3_Seg03
Rope3_Seg05 Rope3_Seg04
Rope3_Seg06 Rope3_Seg05
Rope3_Seg07 Rope3_Seg06
Rope3_Seg08 Rope3_Seg07
Rope3_Seg09 Rope3_Seg08
R_rear_hand01 Rope3_Seg09
R_rear_hand02 Rope3_Seg09
R_rear_hand03 Rope3_Seg09
Rope4_Seg01 null_rope04_connect
Rope4_Seg02 Rope4_Seg01
Rope4_Seg03 Rope4_Seg02
Rope4_Seg04 Rope4_Seg03
Rope4_Seg05 Rope4_Seg04
Rope4_Seg06 Rope4_Seg05
Rope4_Seg07 Rope4_Seg06
Rope4_Seg08 Rope4_Seg07
Rope4_Seg09 Rope4_Seg08
L_rear_hand01 Rope4_Seg09
L_rear_hand02 Rope4_Seg09
L_rear_hand03 Rope4_Seg09
[BasePosition]
#SegmentName Tx, Ty, Tz, Rx, Ry, Rz, BoneLength
MASTER 0.000000 0.000000 0.000000 -90.000000 0.000000 0.000000 10.000000 
root 0.000000 0.000000 0.000000 0.000000 0.000000 0.000000 10.000000 
chest 0.000000 0.000000 0.000000 0.000000 0.000000 0.000000 10.000000 
L_mid_tent01 0.000000 0.000000 0.000000 0.000000 0.000000 0.000000 10.000000 
R_mid_tent01 0.000000 0.000000 0.000000 0.000000 0.000000 0.000000 10.000000 
spine01 0.000000 0.000000 0.000000 0.000000 0.000000 0.000000 10.000000 
Bip01_Neck 0.000000 0.000000 0.000000 0.000000 0.000000 0.000000 10.000000 
L_humerus 0.000000 0.000000 0.000000 0.000000 0.000000 0.000000 10.000000 
R_humerus 0.000000 0.000000 0.000000 0.000000 0.000000 0.000000 10.000000 
weapon_bone 0.000000 0.000000 0.000000 0.000000 0.000000 0.000000 10.000000 
Bip01_Head 0.000000 0.000000 0.000000 0.000000 0.000000 0.000000 10.000000 
eye_left_bone 0.000000 0.000000 0.000000 0.000000 0.000000 0.000000 10.000000 
eye_right_bone 0.000000 0.000000 0.000000 0.000000 0.000000 0.000000 10.000000 
L_forearm 0.000000 0.000000 0.000000 0.000000 0.000000 0.000000 10.000000 
L_front_hand 0.000000 0.000000 0.000000 0.000000 0.000000 0.000000 10.000000 
L_weapon_bone 0.000000 0.000000 0.000000 0.000000 0.000000 0.000000 10.000000 
L_front_hand01_01 0.000000 0.000000 0.000000 0.000000 0.000000 0.000000 10.000000 
L_front_hand02_01 0.000000 0.000000 0.000000 0.000000 0.000000 0.000000 10.000000 
L_front_hand03_01 0.000000 0.000000 0.000000 0.000000 0.000000 0.000000 10.000000 
L_front_hand01_02 0.000000 0.000000 0.000000 0.000000 0.000000 0.000000 10.000000 
L_front_hand02_02 0.000000 0.000000 0.000000 0.000000 0.000000 0.000000 10.000000 
L_front_hand03_02 0.000000 0.000000 0.000000 0.000000 0.000000 0.000000 10.000000 
R_forearm 0.000000 0.000000 0.000000 0.000000 0.000000 0.000000 10.000000 
R_front_hand 0.000000 0.000000 0.000000 0.000000 0.000000 0.000000 10.000000 
R_weapon_bone 0.000000 0.000000 0.000000 0.000000 0.000000 0.000000 10.000000 
R_front_hand01_01 0.000000 0.000000 0.000000 0.000000 0.000000 0.000000 10.000000 
R_front_hand02_01 0.000000 0.000000 0.000000 0.000000 0.000000 0.000000 10.000000 
R_front_hand03_01 0.000000 0.000000 0.000000 0.000000 0.000000 0.000000 10.000000 
R_front_hand01_02 0.000000 0.000000 0.000000 0.000000 0.000000 0.000000 10.000000 
R_front_hand02_02 0.000000 0.000000 0.000000 0.000000 0.000000 0.000000 10.000000 
R_front_hand03_02 0.000000 0.000000 0.000000 0.000000 0.000000 0.000000 10.000000 
null_rope01_connect 0.000000 0.000000 0.000000 0.000000 0.000000 0.000000 10.000000 
Rope1_Seg01 0.000000 0.000000 0.000000 0.000000 0.000000 0.000000 10.000000 
Rope1_Seg02 0.000000 0.000000 0.000000 0.000000 0.000000 0.000000 10.000000 
Rope1_Seg03 0.000000 0.000000 0.000000 0.000000 0.000000 0.000000 10.000000 
Rope1_Seg04 0.000000 0.000000 0.000000 0.000000 0.000000 0.000000 10.000000 
Rope1_Seg05 0.000000 0.000000 0.000000 0.000000 0.000000 0.000000 10.000000 
Rope1_Seg06 0.000000 0.000000 0.000000 0.000000 0.000000 0.000000 10.000000 
Rope1_Seg07 0.000000 0.000000 0.000000 0.000000 0.000000 0.000000 10.000000 
Rope1_Seg09 0.000000 0.000000 0.000000 0.000000 0.000000 0.000000 10.000000 
L_mid_hand01 0.000000 0.000000 0.000000 0.000000 0.000000 0.000000 10.000000 
L_mid_hand02 0.000000 0.000000 0.000000 0.000000 0.000000 0.000000 10.000000 
L_mid_hand03 0.000000 0.000000 0.000000 0.000000 0.000000 0.000000 10.000000 
null_rope02_connect 0.000000 0.000000 0.000000 0.000000 0.000000 0.000000 10.000000 
Rope2_Seg01 0.000000 0.000000 0.000000 0.000000 0.000000 0.000000 10.000000 
Rope2_Seg02 0.000000 0.000000 0.000000 0.000000 0.000000 0.000000 10.000000 
Rope2_Seg03 0.000000 0.000000 0.000000 0.000000 0.000000 0.000000 10.000000 
Rope2_Seg04 0.000000 0.000000 0.000000 0.000000 0.000000 0.000000 10.000000 
Rope2_Seg05 0.000000 0.000000 0.000000 0.000000 0.000000 0.000000 10.000000 
Rope2_Seg06 0.000000 0.000000 0.000000 0.000000 0.000000 0.000000 10.000000 
Rope2_Seg07 0.000000 0.000000 0.000000 0.000000 0.000000 0.000000 10.000000 
Rope2_Seg09 0.000000 0.000000 0.000000 0.000000 0.000000 0.000000 10.000000 
R_mid_hand01 0.000000 0.000000 0.000000 0.000000 0.000000 0.000000 10.000000 
R_mid_hand02 0.000000 0.000000 0.000000 0.000000 0.000000 0.000000 10.000000 
R_mid_hand03 0.000000 0.000000 0.000000 0.000000 0.000000 0.000000 10.000000 
spine02 0.000000 0.000000 0.000000 0.000000 0.000000 0.000000 10.000000 
spine03 0.000000 0.000000 0.000000 0.000000 0.000000 0.000000 10.000000 
pelvis 0.000000 0.000000 0.000000 0.000000 0.000000 0.000000 10.000000 
null_rope03_connect 0.000000 0.000000 0.000000 0.000000 0.000000 0.000000 10.000000 
null_rope04_connect 0.000000 0.000000 0.000000 0.000000 0.000000 0.000000 10.000000 
Rope3_Seg01 0.000000 0.000000 0.000000 0.000000 0.000000 0.000000 10.000000 
Rope3_Seg02 0.000000 0.000000 0.000000 0.000000 0.000000 0.000000 10.000000 
Rope3_Seg03 0.000000 0.000000 0.000000 0.000000 0.000000 0.000000 10.000000 
Rope3_Seg04 0.000000 0.000000 0.000000 0.000000 0.000000 0.000000 10.000000 
Rope3_Seg05 0.000000 0.000000 0.000000 0.000000 0.000000 0.000000 10.000000 
Rope3_Seg06 0.000000 0.000000 0.000000 0.000000 0.000000 0.000000 10.000000 
Rope3_Seg07 0.000000 0.000000 0.000000 0.000000 0.000000 0.000000 10.000000 
Rope3_Seg08 0.000000 0.000000 0.000000 0.000000 0.000000 0.000000 10.000000 
Rope3_Seg09 0.000000 0.000000 0.000000 0.000000 0.000000 0.000000 10.000000 
R_rear_hand01 0.000000 0.000000 0.000000 0.000000 0.000000 0.000000 10.000000 
R_rear_hand02 0.000000 0.000000 0.000000 0.000000 0.000000 0.000000 10.000000 
R_rear_hand03 0.000000 0.000000 0.000000 0.000000 0.000000 0.000000 10.000000 
Rope4_Seg01 0.000000 0.000000 0.000000 0.000000 0.000000 0.000000 10.000000 
Rope4_Seg02 0.000000 0.000000 0.000000 0.000000 0.000000 0.000000 10.000000 
Rope4_Seg03 0.000000 0.000000 0.000000 0.000000 0.000000 0.000000 10.000000 
Rope4_Seg04 0.000000 0.000000 0.000000 0.000000 0.000000 0.000000 10.000000 
Rope4_Seg05 0.000000 0.000000 0.000000 0.000000 0.000000 0.000000 10.000000 
Rope4_Seg06 0.000000 0.000000 0.000000 0.000000 0.000000 0.000000 10.000000 
Rope4_Seg07 0.000000 0.000000 0.000000 0.000000 0.000000 0.000000 10.000000 
Rope4_Seg08 0.000000 0.000000 0.000000 0.000000 0.000000 0.000000 10.000000 
Rope4_Seg09 0.000000 0.000000 0.000000 0.000000 0.000000 0.000000 10.000000 
L_rear_hand01 0.000000 0.000000 0.000000 0.000000 0.000000 0.000000 10.000000 
L_rear_hand02 0.000000 0.000000 0.000000 0.000000 0.000000 0.000000 10.000000 
L_rear_hand03 0.000000 0.000000 0.000000 0.000000 0.000000 0.000000 10.000000 
#Beginning of Data. Separated by tabs
#Fr	Tx	Ty	Tz	Rx	Ry	Rz	SF
[MASTER]
17 0.000000 0.000000 0.000000 0.001660 0.001660 0.001660 0.000000
18 0.000000 0.000000 0.000000 0.001660 0.001660 0.001660 0.000000
[root]
17 583.964966 -62.821960 1389.184814 -91.767502 -35.574493 -89.880173 1508.242676
18 583.503967 -59.646599 1409.440430 -91.303215 -35.098736 -89.492813 1526.616089
[chest]
17 -84.512650 -34.090519 0.000000 5.338831 2.766655 171.233658 91.129311
18 -84.512650 -34.090519 0.000000 5.237407 2.620937 171.835983 91.129311
[L_mid_tent01]
17 27.299196 22.178814 -249.918579 -6.679057 33.766216 56.059998 252.381546
18 27.299191 22.178837 -249.918579 -7.878571 32.960663 53.551685 252.381546
[R_mid_tent01]
17 23.228794 24.509907 226.238495 167.557251 -26.939999 73.583862 228.744751
18 23.228794 24.509907 226.238495 169.081711 -27.039371 70.977249 228.744751
[spine01]
17 -0.361383 -0.195265 0.000000 0.001924 0.001344 20.120155 0.410763
18 -0.361383 -0.195265 0.000000 0.001925 0.001343 20.216745 0.410763
[Bip01_Neck]
17 165.484543 71.581718 0.000119 176.643677 -1.657967 43.431911 180.302734
18 165.484543 71.581718 0.000119 176.643677 -1.657967 43.431911 180.302734
[L_humerus]
17 -13.983130 -135.272980 -120.471481 172.285980 32.233814 -158.494202 181.680161
18 -13.983130 -135.272980 -120.471481 170.761673 34.838120 -157.830948 181.680161
[R_humerus]
17 -13.983309 -135.273102 125.287651 -171.949127 -19.706268 -147.109436 184.909012
18 -13.983309 -135.273102 125.287651 -170.426132 -22.564882 -145.676758 184.909012
[weapon_bone]
17 235.964890 -300.705902 0.000000 0.000000 -89.951546 -128.212341 382.234833
18 235.964890 -300.705902 0.000000 0.000000 -89.951546 -128.212341 382.234833
[Bip01_Head]
17 213.444229 185.715485 11.776925 0.980564 11.111201 -40.829117 283.173767
18 213.444214 185.715485 11.776925 1.414067 10.879574 -40.915794 283.173737
[eye_left_bone]
17 -24.626970 125.451866 -64.772606 0.000000 -90.000000 -99.840431 143.318359
18 -24.626970 125.451866 -64.772606 0.000000 -90.000000 -99.840431 143.318359
[eye_right_bone]
17 -24.626970 125.451866 64.327362 0.000000 -89.965736 80.156380 143.117676
18 -24.626970 125.451866 64.327362 0.000000 -89.965736 80.156380 143.117676
[L_forearm]
17 322.776093 0.000000 -0.000119 0.000083 0.002346 -85.937561 322.776093
18 322.776093 0.000000 -0.000119 0.000023 0.002347 -88.872467 322.776093
[L_front_hand]
17 241.149185 -0.042021 -3.300071 149.893951 -1.837326 -27.423067 241.171753
18 241.149185 -0.042021 -3.300071 149.893951 -1.837326 -27.423067 241.171753
[L_weapon_bone]
17 156.183838 0.000000 0.000000 0.000014 0.000007 0.000001 156.183838
18 156.183838 0.000000 0.000000 0.000014 0.000007 0.000001 156.183838
[L_front_hand01_01]
17 86.095154 20.947098 -0.655860 -0.366594 -0.477154 75.385574 88.609184
18 86.095154 20.947098 -0.655860 -0.366594 -0.477154 75.385574 88.609184
[L_front_hand02_01]
17 86.935165 -11.437475 24.513514 154.399796 -59.883835 -61.369587 91.046425
18 86.935165 -11.437475 24.513514 154.399796 -59.883835 -61.369587 91.046425
[L_front_hand03_01]
17 86.637497 -14.123976 -20.424902 -153.913849 58.118122 -62.702866 90.126129
18 86.637497 -14.123976 -20.424902 -153.913849 58.118122 -62.702866 90.126129
[L_front_hand01_02]
17 71.020905 -0.000179 0.000030 0.000334 -0.002323 -106.379684 71.020905
18 71.020905 -0.000179 0.000030 0.000334 -0.002323 -106.379684 71.020905
[L_front_hand02_02]
17 71.020927 -0.000119 0.000060 0.000334 -0.002323 -106.379684 71.020927
18 71.020927 -0.000119 0.000060 0.000334 -0.002323 -106.379684 71.020927
[L_front_hand03_02]
17 71.020905 -0.000060 0.000060 0.000334 -0.002323 -106.379684 71.020905
18 71.020905 -0.000060 0.000060 0.000334 -0.002323 -106.379684 71.020905
[R_forearm]
17 322.776428 -0.000060 0.000030 0.199622 -0.075810 -69.794525 322.776428
18 322.776428 -0.000060 0.000030 0.202968 -0.062411 -73.490921 322.776428
[R_front_hand]
17 238.847015 -0.006795 2.210259 -8.879457 -10.642941 -26.315098 238.857239
18 238.847015 -0.006795 2.210259 -8.879457 -10.642941 -26.315100 238.857239
[R_weapon_bone]
17 155.664093 0.002503 -0.000030 0.003487 0.001180 -90.988930 155.664078
18 155.664093 0.002503 -0.000030 0.003487 0.001180 -90.988930 155.664078
[R_front_hand01_01]
17 87.624611 14.231146 22.918642 -154.633499 -59.950619 61.746044 91.683487
18 87.624611 14.231146 22.918642 -154.633499 -59.950619 61.746044 91.683487
[R_front_hand02_01]
17 89.356956 14.367283 -19.491137 154.602661 58.302849 63.744389 92.579636
18 89.356956 14.367283 -19.491137 154.602661 58.302849 63.744389 92.579636
[R_front_hand03_01]
17 87.286232 -22.307278 -0.143439 0.162155 -0.423168 -75.767921 90.091743
18 87.286232 -22.307278 -0.143439 0.162155 -0.423168 -75.767921 90.091743
[R_front_hand01_02]
17 71.020905 0.000060 0.000119 0.002323 -0.000334 106.381714 71.020905
18 71.020905 0.000060 0.000119 0.002323 -0.000334 106.381714 71.020905
[R_front_hand02_02]
17 71.020844 -0.000030 -0.000119 0.002323 -0.000334 106.381714 71.020836
18 71.020844 -0.000030 -0.000119 0.002323 -0.000334 106.381714 71.020836
[R_front_hand03_02]
17 71.020905 0.000000 0.000030 0.002323 -0.000334 106.381714 71.020905
18 71.020905 0.000000 0.000030 0.002323 -0.000334 106.381714 71.020905
[null_rope01_connect]
17 328.732483 0.000000 -0.000238 -123.404419 -54.113178 -168.882248 328.732483
18 328.732483 0.000000 -0.000238 -123.836304 -55.425659 -166.713791 328.732483
[Rope1_Seg01]
17 0.000013 -0.000054 0.000068 -179.674866 50.084671 -146.160522 0.000088
18 0.000016 -0.000053 0.000072 -165.792953 50.751087 -137.772644 0.000091
[Rope1_Seg02]
17 139.999863 -0.000179 0.000000 -13.533746 9.702835 -0.567567 139.999863
18 139.999863 -0.000179 0.000000 -14.021728 8.567337 0.300292 139.999863
[Rope1_Seg03]
17 139.999924 0.000060 -0.000060 -5.491982 3.670368 -0.432043 139.999924
18 139.999924 0.000060 -0.000060 -4.210603 2.503471 -0.070583 139.999924
[Rope1_Seg04]
17 139.999924 -0.000060 -0.000119 -14.998535 5.196950 4.526999 139.999924
18 139.999924 -0.000060 -0.000119 -15.850084 5.534958 4.236269 139.999924
[Rope1_Seg05]
17 139.999832 0.000119 -0.000060 -13.853316 3.666336 7.023291 139.999832
18 139.999832 0.000119 -0.000060 -15.373751 4.356737 6.699632 139.999832
[Rope1_Seg06]
17 139.999954 0.000119 -0.000060 -6.402796 1.282978 4.295184 139.999954
18 139.999954 0.000119 -0.000060 -6.747851 1.405347 4.046920 139.999954
[Rope1_Seg07]
17 139.999985 0.000060 0.000000 -3.897063 0.568905 3.139917 139.999985
18 139.999985 0.000060 0.000000 -4.044622 0.643992 2.908960 139.999985
[Rope1_Seg09]
17 121.602913 0.000119 -0.000089 -89.793175 -1.359789 0.847147 121.602913
18 121.602913 0.000119 -0.000089 -89.793175 -1.359789 0.847147 121.602913
[L_mid_hand01]
17 103.859421 1.038730 8.195221 109.056198 -40.604698 -13.201401 104.187431
18 103.859421 1.038730 8.195221 109.056198 -40.604698 -13.201401 104.187431
[L_mid_hand02]
17 105.572853 -4.139662 -10.864139 -146.713593 31.476528 -37.902313 106.211075
18 105.572853 -4.139662 -10.864139 -146.713593 31.476528 -37.902313 106.211075
[L_mid_hand03]
17 104.641464 17.579376 -3.913581 -14.267233 12.322316 43.898396 106.179977
18 104.641464 17.579376 -3.913581 -14.267233 12.322316 43.898396 106.179977
[null_rope02_connect]
17 328.732849 0.000179 -0.000119 -99.789383 61.682129 25.544968 328.732849
18 328.732849 0.000179 -0.000119 -101.070625 61.451752 22.426382 328.732849
[Rope2_Seg01]
17 0.000021 0.000093 0.000064 160.805969 31.788708 -54.858620 0.000115
18 0.000025 0.000094 0.000060 148.170013 26.422438 -53.795872 0.000115
[Rope2_Seg02]
17 139.999741 -0.000060 -0.000119 -22.918823 2.700663 7.268857 139.999756
18 139.999741 -0.000060 -0.000119 -20.151379 0.181916 6.160897 139.999756
[Rope2_Seg03]
17 140.000107 0.000030 0.000000 -14.563136 -0.406013 6.808398 140.000107
18 140.000107 0.000030 0.000000 -10.305428 -2.115290 5.076061 140.000107
[Rope2_Seg04]
17 139.999802 0.000000 -0.000060 -8.623545 -1.842176 5.574191 139.999802
18 139.999802 0.000000 -0.000060 -5.250995 -2.886904 3.883735 139.999802
[Rope2_Seg05]
17 139.999985 -0.000060 0.000119 -8.032211 -2.607559 6.545640 139.999985
18 139.999985 -0.000060 0.000119 -8.028131 -0.681053 4.835247 139.999985
[Rope2_Seg06]
17 139.999893 -0.000030 -0.000119 -5.746769 -3.238688 6.086786 139.999893
18 139.999893 -0.000030 -0.000119 -8.008196 -0.181481 5.107698 139.999893
[Rope2_Seg07]
17 139.999893 0.000060 -0.000060 -3.025638 -2.836148 4.090975 139.999893
18 139.999893 0.000060 -0.000060 -4.299648 -1.155591 3.465600 139.999893
[Rope2_Seg09]
17 121.338966 0.000089 -0.000060 33.793236 -1.359788 -0.847141 121.338966
18 121.338966 0.000089 -0.000060 33.793236 -1.359788 -0.847141 121.338966
[R_mid_hand01]
17 104.680779 11.144459 -10.335981 -37.204079 31.906813 37.576260 105.778534
18 104.680779 11.144459 -10.335981 -37.204079 31.906813 37.576260 105.778534
[R_mid_hand02]
17 104.070427 2.443552 8.231699 70.367462 -42.427391 14.067809 104.424065
18 104.070427 2.443552 8.231699 70.367462 -42.427391 14.067809 104.424065
[R_mid_hand03]
17 106.028137 -11.221827 -5.996406 -169.893616 12.226661 -47.211018 106.788818
18 106.028137 -11.221827 -5.996406 -169.893616 12.226661 -47.211018 106.788818
[spine02]
17 129.756927 0.001550 0.000119 -0.064164 -4.059878 -6.944832 129.756927
18 129.756927 0.001550 0.000119 -0.042955 -4.060296 -7.244557 129.756927
[spine03]
17 78.614037 0.082995 -4.898975 1.644234 3.945681 12.754771 78.766579
18 78.614044 0.082935 -4.898976 1.656948 3.940395 12.941096 78.766586
[pelvis]
17 169.435242 0.051022 0.000000 -0.034205 -0.187266 6.569776 169.435257
18 169.435242 0.051022 0.000000 -0.035450 -0.186952 6.947521 169.435257
[null_rope03_connect]
17 -1.257226 -2.466202 137.391083 -143.085785 -88.987404 -123.804283 137.418976
18 -1.257226 -2.466202 137.391083 0.000000 -89.579887 92.271889 137.418976
[null_rope04_connect]
17 -1.259640 -2.480268 -137.844437 -143.085785 -88.987404 -123.804283 137.872513
18 -1.259640 -2.480268 -137.844437 0.000000 -89.579887 92.271889 137.872513
[Rope3_Seg01]
17 0.000010 0.000038 -0.000114 -148.734436 -49.710720 -60.964848 0.000121
18 0.000010 0.000038 -0.000114 -143.951218 -46.909325 -65.915550 0.000121
[Rope3_Seg02]
17 139.999924 -0.000119 0.000060 2.059777 -2.949611 5.477810 139.999924
18 139.999924 -0.000119 0.000060 1.352306 -2.512843 3.405871 139.999924
[Rope3_Seg03]
17 139.999924 -0.000119 0.000119 0.970193 -1.947835 1.810549 139.999924
18 139.999924 -0.000119 0.000119 1.152486 -1.822391 4.198761 139.999924
[Rope3_Seg04]
17 139.999924 0.000119 0.000000 0.486724 -1.419382 0.371566 139.999924
18 139.999924 0.000119 0.000000 0.797186 -1.216279 4.322084 139.999924
[Rope3_Seg05]
17 139.999924 -0.000238 0.000060 2.451174 -2.713175 16.093390 139.999924
18 139.999924 -0.000238 0.000060 0.361111 -2.990584 -3.719064 139.999924
[Rope3_Seg06]
17 139.999893 -0.000119 -0.000060 -0.105938 -1.956420 21.381790 139.999893
18 139.999893 -0.000119 -0.000060 0.328620 -4.890571 -9.498095 139.999893
[Rope3_Seg07]
17 139.999771 0.000060 -0.000119 -1.219354 -1.111934 10.623273 139.999771
18 139.999771 0.000060 -0.000119 0.606318 -4.446195 -7.138903 139.999771
[Rope3_Seg08]
17 139.999985 -0.000060 0.000000 -0.944780 -0.760810 6.034805 139.999985
18 139.999985 -0.000060 0.000000 0.524114 -3.720942 -5.861899 139.999985
[Rope3_Seg09]
17 90.185997 -0.000179 -0.000060 89.793228 -1.359877 -0.847183 90.185997
18 90.185997 -0.000179 -0.000060 89.793228 -1.359877 -0.847183 90.185997
[R_rear_hand01]
17 103.366196 -6.073594 -10.757982 -164.755127 19.627697 -40.352161 104.101845
18 103.366196 -6.073594 -10.757982 -164.755127 19.627697 -40.352161 104.101845
[R_rear_hand02]
17 100.509819 12.039542 -7.992327 -30.792652 24.782448 38.141541 101.543350
18 100.509819 12.039542 -7.992327 -30.792652 24.782448 38.141541 101.543350
[R_rear_hand03]
17 101.539970 5.215704 5.435467 82.448349 -41.048256 8.840378 101.819031
18 101.539970 5.215704 5.435467 82.448349 -41.048256 8.840378 101.819031
[Rope4_Seg01]
17 -0.000015 -0.000042 -0.000153 85.727043 -37.354603 -152.874207 0.000159
18 -0.000015 -0.000040 -0.000153 86.140533 -39.519016 -150.882645 0.000158
[Rope4_Seg02]
17 139.999985 0.000060 0.000119 23.674877 -14.397369 14.959699 139.999985
18 139.999985 0.000060 0.000119 18.490807 -11.488542 13.443418 139.999985
[Rope4_Seg03]
17 139.999924 0.000000 -0.000238 16.146551 0.646936 18.049911 139.999924
18 139.999924 0.000000 -0.000238 14.030519 0.270301 16.606319 139.999924
[Rope4_Seg04]
17 139.999985 0.000000 0.000119 6.628182 0.471909 9.283243 139.999985
18 139.999985 0.000000 0.000119 6.531703 1.257377 10.128138 139.999985
[Rope4_Seg05]
17 139.999802 -0.000060 -0.000119 8.933965 -16.505186 1.645902 139.999802
18 139.999802 -0.000060 -0.000119 9.830484 -18.879499 2.097422 139.999802
[Rope4_Seg06]
17 139.999924 0.000000 0.000060 19.136467 -18.372318 2.233646 139.999924
18 139.999924 0.000000 0.000060 22.997200 -20.754019 3.190290 139.999924
[Rope4_Seg07]
17 139.999802 0.000000 0.000000 15.629476 -6.296171 4.157773 139.999802
18 139.999802 0.000000 0.000000 17.811417 -6.425954 5.153543 139.999802
[Rope4_Seg08]
17 139.999924 0.000000 0.000119 9.004601 -2.751614 3.259188 139.999924
18 139.999924 0.000000 0.000119 9.553156 -2.457391 3.813043 139.999924
[Rope4_Seg09]
17 90.185791 0.000060 0.000060 -135.617828 2.228885 0.850567 90.185791
18 90.185791 0.000060 0.000060 -135.617828 2.228885 0.850567 90.185791
[L_rear_hand01]
17 101.696655 -8.392275 -7.654577 -31.684452 -23.583008 144.025742 102.329041
18 101.696655 -8.392275 -7.654577 -31.684452 -23.583008 144.025742 102.329041
[L_rear_hand02]
17 102.726799 -1.568258 5.773216 82.701553 38.753956 171.553619 102.900848
18 102.726799 -1.568258 5.773216 82.701553 38.753956 171.553619 102.900848
[L_rear_hand03]
17 104.552910 9.721220 -10.420293 -163.975388 -19.004416 -142.009338 105.519653
18 104.552910 9.721220 -10.420293 -163.975403 -19.004421 -142.009338 105.519653
